<?xml version="1.0" encoding="UTF-8" standalone="no" ?>
<!DOCTYPE svg PUBLIC "-//W3C//DTD SVG 1.1//EN" "http://www.w3.org/Graphics/SVG/1.1/DTD/svg11.dtd">
<svg xmlns="http://www.w3.org/2000/svg" xmlns:xlink="http://www.w3.org/1999/xlink" version="1.1" width="500" height="500" viewBox="0 0 500 500" xml:space="preserve">
<desc>Created with Fabric.js 5.3.0</desc>
<defs>
</defs>
<g transform="matrix(2.3722280637 0 0 2.3722280637 249.5148427537 249.5148427537)" id="gyLGMYkBg85pB7gttiAIg"  >
<path style="stroke: rgb(221,221,221); stroke-width: 5; stroke-dasharray: none; stroke-linecap: butt; stroke-dashoffset: 0; stroke-linejoin: miter; stroke-miterlimit: 4; fill: none; fill-rule: nonzero; opacity: 1;"  transform=" translate(0, 0)" d="M -77.38896 -77.38896 L 77.38897 -77.38896 L 77.38897 77.38897 L -77.38896 77.38897 z" stroke-linecap="round" />
</g>
<g transform="matrix(2.3569562851 0 0 0.4403592239 248.5168970899 100.2538820052)" id="jh40Hhh7B7qa7fzGtoLXQ"  >
<path style="stroke: rgb(221,221,221); stroke-width: 5; stroke-dasharray: none; stroke-linecap: butt; stroke-dashoffset: 0; stroke-linejoin: miter; stroke-miterlimit: 4; fill: rgb(221,221,221); fill-rule: nonzero; opacity: 1;"  transform=" translate(0, 0)" d="M -77.38896 -77.38896 L 77.38897 -77.38896 L 77.38897 77.38897 L -77.38896 77.38897 z" stroke-linecap="round" />
</g>
<g transform="matrix(2.2775184708 0 0 2.2775184708 250.2945222153 250.2945211643)" id="2wD9Qw8kua_XFQ_on0KC3"  >
<path style="stroke: rgb(221,221,221); stroke-width: 5; stroke-dasharray: none; stroke-linecap: butt; stroke-dashoffset: 0; stroke-linejoin: miter; stroke-miterlimit: 4; fill: none; fill-rule: nonzero; opacity: 1;"  transform=" translate(0, 0)" d="M -106.66218 -61.40925 C -106.66218 -86.40174999999999 -86.40175 -106.66218 -61.40925000000001 -106.66218 L 61.409259999999996 -106.66218 L 61.409259999999996 -106.66218 C 86.40176 -106.66218 106.66219 -86.40175 106.66219 -61.40925000000001 L 106.66219 61.40924999999999 L 106.66219 61.40924999999999 C 106.66219 86.40174999999999 86.40176 106.66217999999999 61.409259999999996 106.66217999999999 L -61.40925000000001 106.66217999999999 L -61.40925000000001 106.66217999999999 C -86.40175 106.66217999999999 -106.66218 86.40174999999999 -106.66218 61.40924999999999 z" stroke-linecap="round" />
</g>
<g transform="matrix(2.3727576149 0 0 0.3792132007 249.5571480489 227.0914270484)" id="WiqzJi2ICLvPDm0X9SEhS"  >
<path style="stroke: rgb(221,221,221); stroke-width: 4; stroke-dasharray: none; stroke-linecap: butt; stroke-dashoffset: 0; stroke-linejoin: miter; stroke-miterlimit: 4; fill: none; fill-rule: nonzero; opacity: 1;"  transform=" translate(0, 0)" d="M -77.38896 -77.38896 L 77.38897 -77.38896 L 77.38897 77.38897 L -77.38896 77.38897 z" stroke-linecap="round" />
</g>
<g transform="matrix(2.3712691957 0 0 0.3830115921 249.892941807 343.9669993799)" id="uNaoctX7wBWBWZMSY1CR0"  >
<path style="stroke: rgb(221,221,221); stroke-width: 5; stroke-dasharray: none; stroke-linecap: butt; stroke-dashoffset: 0; stroke-linejoin: miter; stroke-miterlimit: 4; fill: none; fill-rule: nonzero; opacity: 1;"  transform=" translate(0, 0)" d="M -77.38896 -77.38896 L 77.38897 -77.38896 L 77.38897 77.38897 L -77.38896 77.38897 z" stroke-linecap="round" />
</g>
<g transform="matrix(1.7364009125 0 0 5.43611464 248.0265819673 248.6081737501)" id="yXr20j4LkfBVM_jLLzHkK"  >
<path style="stroke: rgb(221,221,221); stroke-width: 1; stroke-dasharray: none; stroke-linecap: butt; stroke-dashoffset: 0; stroke-linejoin: miter; stroke-miterlimit: 4; fill: none; fill-rule: nonzero; opacity: 1;"  transform=" translate(0, 0)" d="M -33.64738 -33.64738 L 33.647369999999995 -33.64738 L 33.647369999999995 33.647369999999995 L -33.64738 33.647369999999995 z" stroke-linecap="round" />
</g>
</svg>